<?xml version="1.0" encoding="iso-8859-1"?>
<!-- Uploaded to: SVG Repo, www.svgrepo.com, Generator: SVG Repo Mixer Tools -->
<svg height="20px" width="20px" version="1.1" id="Layer_1" xmlns="http://www.w3.org/2000/svg" xmlns:xlink="http://www.w3.org/1999/xlink"
	 viewBox="0 0 512 512" xml:space="preserve">
<path style="fill:#FFF173;" d="M493.123,235.927l-70.858-70.857c-5.34-5.339-12.441-8.281-19.992-8.281
	c-7.553,0-14.652,2.94-19.993,8.281c-5.34,5.34-8.282,12.441-8.282,19.992v42.584h-89.723v-90.041h42.584
	c7.553,0,14.652-2.941,19.993-8.283c5.339-5.34,8.281-12.44,8.281-19.992c0-7.553-2.941-14.653-8.281-19.992L275.995,18.48
	c-5.34-5.339-12.441-8.281-19.994-8.281c-7.553,0-14.652,2.941-19.992,8.281l-70.857,70.858c-5.34,5.34-8.281,12.441-8.281,19.992
	s2.94,14.652,8.281,19.992c5.34,5.34,12.441,8.282,19.992,8.282h42.584v90.041h-89.722v-42.583c0-7.553-2.941-14.652-8.283-19.993
	c-5.34-5.34-12.44-8.281-19.992-8.281c-7.553,0-14.653,2.941-19.992,8.281L18.88,235.926c-5.339,5.34-8.281,12.44-8.281,19.993
	c0,7.553,2.941,14.652,8.281,19.992l70.858,70.857c5.34,5.339,12.441,8.281,19.992,8.281c7.551,0,14.652-2.94,19.992-8.281
	c5.34-5.34,8.282-12.441,8.282-19.992v-42.584h89.723v90.201h-42.583c-7.553,0-14.653,2.941-19.993,8.283
	c-5.34,5.34-8.281,12.44-8.281,19.992c0,7.553,2.941,14.653,8.281,19.992l70.857,70.858c5.34,5.34,12.44,8.282,19.993,8.282
	c7.552,0,14.652-2.941,19.992-8.281l70.857-70.858c5.34-5.34,8.281-12.441,8.281-19.992s-2.94-14.652-8.281-19.992
	c-5.34-5.34-12.441-8.282-19.992-8.282h-42.584v-90.201h89.722v42.583c0,7.552,2.941,14.652,8.283,19.993
	c5.34,5.34,12.44,8.281,19.992,8.281c7.553,0,14.652-2.941,19.992-8.281l70.858-70.857c5.339-5.34,8.281-12.44,8.281-19.992
	C501.404,248.367,498.463,241.267,493.123,235.927z"/>
<g>
	<path style="fill:#248A9C;" d="M256.001,512c-10.276,0-19.936-4.002-27.204-11.268l-70.858-70.858
		c-7.267-7.266-11.268-16.929-11.268-27.205c0-10.275,4.001-19.936,11.267-27.203c7.268-7.269,16.931-11.271,27.206-11.271h32.383
		v-69.801h-69.325v32.385c0,10.276-4.002,19.937-11.268,27.204c-7.267,7.267-16.929,11.268-27.205,11.268
		s-19.937-4.002-27.204-11.268l-70.858-70.858C4.4,275.858,0.399,266.196,0.399,255.92s4.001-19.937,11.266-27.205l70.86-70.858
		c7.267-7.266,16.929-11.268,27.204-11.268s19.936,4.001,27.203,11.267c7.268,7.268,11.27,16.931,11.27,27.206v32.383h69.324
		v-69.641h-32.383c-10.275,0-19.936-4.002-27.204-11.269c-7.267-7.268-11.269-16.93-11.269-27.205
		c0-10.277,4.002-19.939,11.269-27.205l70.857-70.858C236.065,4.002,245.725,0,256.001,0c10.277,0,19.937,4.002,27.204,11.268
		l70.858,70.858c7.267,7.266,11.268,16.929,11.268,27.205c0,10.276-4.001,19.936-11.268,27.203
		c-7.268,7.269-16.93,11.271-27.205,11.271h-32.385v69.641h69.324v-32.385c0-10.275,4.002-19.936,11.268-27.204
		c7.267-7.267,16.929-11.268,27.205-11.268c10.276,0,19.937,4.002,27.204,11.268l70.858,70.857c0,0.001,0.001,0.001,0.001,0.001
		c7.266,7.268,11.267,16.93,11.267,27.205c0,10.276-4.001,19.937-11.267,27.203l-70.858,70.859
		c-7.267,7.266-16.929,11.268-27.204,11.268c-10.277,0-19.937-4.001-27.203-11.267c-7.268-7.266-11.27-16.929-11.27-27.206v-32.384
		h-69.324v69.801h32.385c10.275,0,19.935,4.002,27.203,11.269c7.267,7.267,11.269,16.93,11.269,27.205
		c0,10.277-4.002,19.939-11.269,27.205l-70.857,70.858C275.938,507.998,266.278,512,256.001,512z M185.144,384.594
		c-4.827,0-9.367,1.881-12.782,5.295c-3.414,3.414-5.293,7.953-5.293,12.78c0,4.828,1.88,9.368,5.293,12.781l70.858,70.858
		c3.414,3.414,7.953,5.293,12.781,5.293c4.828,0,9.368-1.881,12.782-5.293l70.857-70.858c3.415-3.414,5.294-7.952,5.294-12.781
		c0-4.827-1.88-9.368-5.293-12.782c-3.415-3.414-7.953-5.293-12.781-5.293h-42.584c-5.633,0-10.199-4.567-10.199-10.199v-90.2
		c0-5.632,4.566-10.199,10.199-10.199h89.722c5.633,0,10.199,4.567,10.199,10.199v42.583c0,4.828,1.881,9.368,5.294,12.782
		c3.414,3.414,7.952,5.292,12.781,5.292c4.827,0,9.367-1.881,12.781-5.293l70.858-70.858c3.413-3.414,5.292-7.952,5.292-12.78
		c0-4.828-1.88-9.369-5.294-12.783l-70.857-70.856c-3.415-3.414-7.953-5.293-12.781-5.293c-4.828,0-9.368,1.88-12.782,5.292
		c-3.414,3.415-5.294,7.954-5.294,12.781v42.584c0,5.632-4.566,10.199-10.199,10.199h-89.722c-5.633,0-10.199-4.567-10.199-10.199
		v-90.04c0-2.705,1.075-5.298,2.987-7.212c1.912-1.912,4.507-2.987,7.212-2.987h42.584c4.827,0,9.366-1.881,12.781-5.295
		c3.414-3.414,5.293-7.952,5.293-12.78c0-4.828-1.88-9.368-5.293-12.781l-70.857-70.859c-3.413-3.413-7.952-5.293-12.781-5.293
		c-4.827,0-9.367,1.881-12.782,5.293L172.363,96.55c-3.415,3.414-5.294,7.952-5.294,12.781c0,4.827,1.88,9.368,5.294,12.782
		c3.414,3.414,7.953,5.293,12.781,5.293h42.583c5.633,0,10.199,4.567,10.199,10.199v90.04c0,5.632-4.566,10.199-10.199,10.199
		h-89.722c-5.633,0-10.199-4.567-10.199-10.199v-42.583c0-4.827-1.881-9.368-5.295-12.783c-3.414-3.413-7.952-5.291-12.78-5.291
		c-4.828,0-9.367,1.881-12.782,5.293l-70.858,70.858c-3.413,3.414-5.292,7.953-5.292,12.782c0,4.827,1.88,9.367,5.293,12.781
		l70.858,70.857c3.415,3.414,7.953,5.293,12.782,5.293c4.828,0,9.368-1.88,12.782-5.292c3.413-3.415,5.293-7.953,5.293-12.781
		v-42.584c0-5.632,4.566-10.199,10.199-10.199h89.723c5.633,0,10.199,4.567,10.199,10.199v90.2c0,5.632-4.566,10.199-10.199,10.199
		L185.144,384.594L185.144,384.594z"/>
	<path style="fill:#248A9C;" d="M77.424,305.242c-2.611,0-5.222-0.996-7.214-2.989l-1.13-1.13
		c-3.982-3.984-3.981-10.441,0.003-14.424c3.984-3.983,10.442-3.982,14.424,0.003l1.13,1.13c3.982,3.984,3.981,10.441-0.003,14.424
		C82.643,304.247,80.033,305.242,77.424,305.242z"/>
	<path style="fill:#248A9C;" d="M56.741,284.56c-2.61,0-5.221-0.996-7.212-2.987l-18.686-18.686c-3.983-3.983-3.983-10.441,0-14.425
		c3.983-3.982,10.441-3.982,14.425,0l18.686,18.686c3.983,3.983,3.983,10.441,0,14.425C61.962,283.563,59.351,284.56,56.741,284.56z
		"/>
</g>
</svg>
